<svg width="113" height="120" viewBox="0 0 113 120" fill="none" xmlns="http://www.w3.org/2000/svg">
<path d="M81.6111 43.0348C81.6111 19.4965 63.3467 0.43158 40.8056 0.43158C18.2644 0.43158 0 19.4965 0 43.0348C0 52.1678 2.76615 60.5819 7.45486 67.5316C4.82604 75.5729 0.490451 81.9634 0.431597 82.0433C0 82.6557 -0.117708 83.561 0.137326 84.3598C0.392361 85.1587 0.941667 85.6379 1.56944 85.6379C8.74965 85.6379 14.6939 82.3628 18.9707 78.9812C25.2877 83.1616 32.7622 85.6379 40.8056 85.6379C63.3467 85.6379 81.6111 66.573 81.6111 43.0348ZM105.545 101.614C110.234 94.6911 113 86.2504 113 77.1173C113 59.3038 102.504 44.0466 87.6339 37.6827C87.8104 39.4401 87.8889 41.2241 87.8889 43.0348C87.8889 71.2327 66.7602 94.1586 40.8056 94.1586C38.6868 94.1586 36.6269 93.9456 34.5866 93.6527C40.7663 108.963 55.2837 119.72 72.1944 119.72C80.2378 119.72 87.7123 117.271 94.0293 113.064C98.3061 116.445 104.25 119.72 111.431 119.72C112.058 119.72 112.627 119.215 112.863 118.442C113.118 117.67 113 116.765 112.568 116.126C112.51 116.046 108.174 109.682 105.545 101.614Z" fill="#005C65"/>
<path d="M56.5 41.75H45.25V30.5C45.25 29.1195 44.1305 28 42.75 28H40.25C38.8695 28 37.75 29.1195 37.75 30.5V41.75H26.5C25.1195 41.75 24 42.8695 24 44.25V46.75C24 48.1305 25.1195 49.25 26.5 49.25H37.75V60.5C37.75 61.8805 38.8695 63 40.25 63H42.75C44.1305 63 45.25 61.8805 45.25 60.5V49.25H56.5C57.8805 49.25 59 48.1305 59 46.75V44.25C59 42.8695 57.8805 41.75 56.5 41.75Z" fill="white"/>
</svg>
