<svg width="505" height="470" viewBox="0 0 505 470" fill="none" xmlns="http://www.w3.org/2000/svg">
<g clip-path="url(#clip0)">
<path d="M252.5 470C391.952 470 505 464.893 505 458.593C505 452.292 391.952 447.185 252.5 447.185C113.048 447.185 0 452.292 0 458.593C0 464.893 113.048 470 252.5 470Z" fill="#E6E6E6"/>
<path d="M433.131 109.605H430.599V40.181C430.599 34.9043 429.56 29.6794 427.542 24.8044C425.525 19.9294 422.568 15.4998 418.839 11.7687C415.111 8.03754 410.685 5.07784 405.814 3.05856C400.943 1.03928 395.723 -1.83094e-05 390.45 2.41923e-10H243.486C238.213 -1.24836e-05 232.993 1.03929 228.122 3.05857C223.251 5.07785 218.825 8.03756 215.097 11.7687C211.369 15.4999 208.411 19.9294 206.394 24.8044C204.376 29.6794 203.338 34.9043 203.338 40.181V421.049C203.338 426.325 204.376 431.55 206.394 436.425C208.411 441.3 211.369 445.73 215.097 449.461C218.825 453.192 223.251 456.152 228.122 458.171C232.993 460.19 238.213 461.23 243.486 461.23H390.45C395.723 461.23 400.943 460.19 405.814 458.171C410.685 456.152 415.111 453.192 418.839 449.461C422.568 445.73 425.525 441.3 427.542 436.425C429.56 431.55 430.599 426.325 430.599 421.049V159.023H433.131V109.605Z" fill="#3F3D56"/>
<path d="M392.07 10.4536H372.887C373.769 12.6183 374.106 14.9669 373.867 17.2925C373.629 19.6181 372.823 21.8493 371.52 23.7897C370.217 25.73 368.457 27.3199 366.396 28.4193C364.334 29.5186 362.034 30.0937 359.698 30.0939H275.504C273.168 30.0937 270.868 29.5186 268.807 28.4192C266.745 27.3199 264.985 25.73 263.682 23.7897C262.38 21.8493 261.573 19.6181 261.335 17.2925C261.097 14.9669 261.433 12.6183 262.316 10.4536H244.398C240.461 10.4536 236.562 11.2297 232.924 12.7377C229.287 14.2457 225.981 16.456 223.197 19.2423C220.413 22.0287 218.205 25.3366 216.698 28.9772C215.191 32.6178 214.416 36.5197 214.416 40.4603V420.769C214.416 424.71 215.191 428.612 216.698 432.252C218.205 435.893 220.413 439.201 223.197 441.987C225.981 444.773 229.287 446.984 232.924 448.492C236.562 450 240.461 450.776 244.398 450.776H392.07C396.008 450.776 399.906 450 403.544 448.492C407.182 446.984 410.487 444.773 413.271 441.987C416.055 439.201 418.264 435.893 419.77 432.252C421.277 428.612 422.053 424.71 422.053 420.769V40.4603C422.053 36.5198 421.277 32.6178 419.77 28.9772C418.264 25.3366 416.055 22.0287 413.271 19.2424C410.487 16.456 407.182 14.2457 403.544 12.7377C399.906 11.2298 396.008 10.4536 392.07 10.4536Z" fill="white"/>
<path d="M325.984 423.839C312.935 423.845 300.28 419.362 290.14 411.141C280 402.92 272.992 391.461 270.29 378.684C267.587 365.907 269.355 352.589 275.297 340.961C281.239 329.333 290.993 320.103 302.926 314.817C314.858 309.53 328.244 308.509 340.839 311.925C353.434 315.341 364.474 322.985 372.107 333.578C379.741 344.17 383.505 357.066 382.768 370.106C382.032 383.145 376.839 395.534 368.061 405.198L379.944 418.53L374.014 421.047C364.841 424.941 355.864 421.152 350.826 418.128C343.083 421.885 334.59 423.837 325.984 423.839ZM325.984 319.303C318.727 319.305 311.567 320.968 305.05 324.164C298.534 327.359 292.833 332.004 288.385 337.742C283.936 343.48 280.857 350.16 279.383 357.272C277.908 364.383 278.078 371.737 279.879 378.773C281.679 385.809 285.063 392.34 289.771 397.866C294.48 403.393 300.388 407.769 307.045 410.661C313.702 413.552 320.931 414.882 328.181 414.549C335.43 414.217 342.507 412.23 348.872 408.74L351.41 407.345L353.771 409.025C356.468 410.988 359.53 412.391 362.778 413.15L355.3 404.761L358.578 401.678C363.339 397.24 367.131 391.863 369.715 385.887C372.299 379.91 373.62 373.463 373.594 366.951C373.579 354.319 368.559 342.208 359.633 333.275C350.708 324.342 338.607 319.318 325.984 319.303Z" fill="#E6E6E6"/>
<path d="M378.209 366.951C378.205 355.501 374.442 344.368 367.499 335.267C360.556 326.165 350.818 319.599 339.782 316.577C328.746 313.555 317.024 314.245 306.418 318.541C295.813 322.838 286.911 330.502 281.082 340.355C275.254 350.209 272.821 361.706 274.158 373.078C275.495 384.45 280.528 395.068 288.483 403.298C296.438 411.528 306.874 416.915 318.187 418.63C329.499 420.345 341.061 418.293 351.095 412.789C354.705 415.36 363.512 420.488 372.212 416.794L361.739 405.045C366.945 400.163 371.093 394.263 373.927 387.71C376.76 381.157 378.218 374.091 378.209 366.951Z" fill="white"/>
<path d="M336.404 356.264H299.087V359.733H336.404V356.264Z" fill="#5ECBCB"/>
<path d="M364.128 368.262H299.087V371.731H364.128V368.262Z" fill="#E6E6E6"/>
<path d="M364.065 380.26H299.087V383.729H364.065V380.26Z" fill="#E6E6E6"/>
<path d="M325.984 170.972C312.935 170.979 300.28 166.496 290.14 158.275C280 150.054 272.992 138.595 270.29 125.818C267.587 113.041 269.355 99.7225 275.297 88.0948C281.239 76.467 290.993 67.2366 302.926 61.9502C314.858 56.6639 328.244 55.643 340.839 59.0586C353.434 62.4742 364.474 70.1188 372.107 80.7111C379.741 91.3035 383.505 104.2 382.768 117.239C382.032 130.278 376.839 142.668 368.061 152.332L379.944 165.663L374.014 168.181C364.841 172.075 355.864 168.285 350.826 165.261C343.083 169.018 334.59 170.971 325.984 170.972ZM325.984 66.4369C318.727 66.4391 311.567 68.1016 305.05 71.2974C298.534 74.4931 292.833 79.1375 288.385 84.8756C283.936 90.6137 280.857 97.2937 279.383 104.405C277.908 111.517 278.078 118.871 279.879 125.907C281.679 132.943 285.063 139.473 289.771 145C294.48 150.527 300.388 154.903 307.045 157.794C313.702 160.686 320.931 162.016 328.181 161.683C335.43 161.35 342.507 159.363 348.872 155.874L351.41 154.478L353.771 156.159C356.468 158.122 359.53 159.525 362.778 160.283L355.3 151.895L358.578 148.812C363.339 144.373 367.131 138.997 369.715 133.02C372.299 127.044 373.62 120.597 373.594 114.085C373.579 101.452 368.559 89.3412 359.633 80.4085C350.708 71.4758 338.607 66.4512 325.984 66.4369Z" fill="#E6E6E6"/>
<path d="M378.209 114.085C378.205 102.634 374.442 91.502 367.499 82.4006C360.556 73.2991 350.818 66.7324 339.782 63.7105C328.746 60.6886 317.024 61.3788 306.418 65.675C295.813 69.9712 286.911 77.6354 281.082 87.4889C275.254 97.3424 272.821 108.839 274.158 120.212C275.495 131.584 280.528 142.202 288.483 150.432C296.438 158.662 306.874 164.049 318.187 165.764C329.499 167.478 341.061 165.426 351.095 159.923C354.705 162.494 363.512 167.621 372.212 163.928L361.739 152.178C366.945 147.297 371.093 141.396 373.927 134.843C376.76 128.291 378.218 121.225 378.209 114.085Z" fill="white"/>
<path d="M336.404 103.398H299.087V106.866H336.404V103.398Z" fill="#5ECBCB"/>
<path d="M364.128 115.396H299.087V118.864H364.128V115.396Z" fill="#E6E6E6"/>
<path d="M364.065 127.394H299.087V130.862H364.065V127.394Z" fill="#E6E6E6"/>
<path d="M398.323 175.832C402.869 175.832 406.555 172.143 406.555 167.593C406.555 163.043 402.869 159.354 398.323 159.354C393.776 159.354 390.091 163.043 390.091 167.593C390.091 172.143 393.776 175.832 398.323 175.832Z" fill="#E6E6E6"/>
<path d="M398.323 428.698C402.869 428.698 406.555 425.009 406.555 420.459C406.555 415.909 402.869 412.22 398.323 412.22C393.776 412.22 390.091 415.909 390.091 420.459C390.091 425.009 393.776 428.698 398.323 428.698Z" fill="#E6E6E6"/>
<path d="M106.871 150.699L102.924 170.45L121.342 184.274L129.894 158.6L106.871 150.699Z" fill="#9F616A"/>
<path d="M121.671 168.804C131.48 168.804 139.432 160.846 139.432 151.029C139.432 141.212 131.48 133.254 121.671 133.254C111.862 133.254 103.911 141.212 103.911 151.029C103.911 160.846 111.862 168.804 121.671 168.804Z" fill="#9F616A"/>
<path d="M83.1902 286.974C83.1902 286.974 97.0039 353.466 98.9773 360.049C100.951 366.633 98.9773 367.291 98.9773 367.291C98.9773 367.291 96.3461 369.266 98.3195 369.924C100.293 370.583 94.3727 373.874 94.3727 373.874C94.3727 373.874 91.7416 386.383 90.426 389.016C89.1104 391.649 83.1903 408.108 82.5325 408.108C81.8747 408.108 78.5857 417.983 78.5857 417.983C78.5857 417.983 86.4792 430.491 95.0305 425.224L98.3195 419.299L124.631 380.458C124.631 380.458 135.814 367.949 133.183 352.808L134.498 368.608L137.129 419.958C137.129 419.958 129.894 424.566 135.156 431.808C135.156 431.808 148.97 436.416 154.89 429.174C154.89 429.174 156.205 425.224 154.232 423.249C152.259 421.274 152.259 421.274 153.574 419.958C154.89 418.641 156.863 416.008 156.863 414.691V409.424L160.152 349.516C160.152 349.516 150.943 288.949 143.707 285.658C136.472 282.366 83.1902 286.974 83.1902 286.974Z" fill="#2F2E41"/>
<path d="M135.814 429.174C135.814 429.174 127.262 445.633 134.498 447.608C139.008 448.812 143.645 449.475 148.312 449.583C148.312 449.583 166.73 464.066 173.966 456.824C181.202 449.583 170.677 443.658 170.677 443.658C170.677 443.658 157.521 434.441 156.863 431.808C156.205 429.174 135.814 429.174 135.814 429.174Z" fill="#2F2E41"/>
<path d="M78.9145 416.995C78.9145 416.995 64.1368 433.815 70.4902 437.804C74.4579 440.265 78.7041 442.244 83.1392 443.701C83.1392 443.701 96.5734 462.904 105.596 458.072C114.618 453.24 106.26 444.516 106.26 444.516C106.26 444.516 96.3375 431.88 96.4705 429.169C96.6034 426.457 78.9145 416.995 78.9145 416.995Z" fill="#2F2E41"/>
<path d="M146.996 287.633C146.996 287.633 144.365 292.899 133.84 290.924C123.316 288.949 81.8746 290.924 81.8746 290.924C81.8746 290.924 84.1768 243.854 78.9145 215.545C73.6521 187.237 94.3726 171.108 94.3726 171.108L100.951 164.525C107.529 163.866 121.421 184.3 121.421 184.3C126.256 185.11 134.084 206.869 137.859 226.131C139.655 235.322 141.26 245.137 142.609 254.163C145.345 272.524 146.996 287.633 146.996 287.633Z" fill="#5ECBCB"/>
<path d="M100.894 139.961C100.894 139.961 97.5732 132.65 106.207 129.326C106.207 129.326 113.512 117.362 128.123 125.338C128.123 125.338 138.084 129.326 138.084 139.961C138.084 150.596 141.405 152.59 141.405 152.59C141.405 152.59 136.46 147.512 135.132 143.524C133.804 139.536 123.474 138.632 119.489 142.62C115.504 146.608 105.543 145.943 105.543 145.943L106.207 160.566C106.207 160.566 102.886 151.925 101.558 151.925C100.23 151.925 98.9014 139.961 100.894 139.961Z" fill="#2F2E41"/>
<path d="M228.611 290.45C223.377 293.592 214.052 297.528 204.523 293.483L198.363 290.868L210.707 277.019C200.857 266.149 195.408 251.996 195.423 237.322C195.438 222.648 200.916 208.506 210.788 197.656C220.661 186.807 234.219 180.028 248.816 178.645C263.412 177.261 278.001 181.371 289.733 190.172C301.465 198.973 309.5 211.834 312.267 226.245C315.035 240.655 312.338 255.581 304.702 268.108C297.066 280.636 285.04 289.866 270.971 293.997C256.901 298.128 241.799 296.863 228.611 290.45V290.45ZM204.96 237.289C204.933 244.053 206.305 250.75 208.989 256.959C211.673 263.167 215.612 268.752 220.558 273.363L223.963 276.565L216.195 285.279C219.569 284.491 222.751 283.034 225.552 280.995L228.004 279.249L230.641 280.699C240.147 285.915 251.102 287.862 261.821 286.239C272.54 284.615 282.43 279.512 289.968 271.715C297.506 263.917 302.276 253.856 303.543 243.081C304.811 232.305 302.505 221.411 296.982 212.075C291.459 202.738 283.024 195.477 272.974 191.407C262.924 187.337 251.817 186.684 241.361 189.549C230.904 192.415 221.678 198.639 215.101 207.264C208.524 215.89 204.961 226.439 204.96 237.289V237.289Z" fill="#5ECBCB"/>
<path d="M200.165 237.289C200.17 225.394 204.079 213.83 211.291 204.375C218.504 194.921 228.62 188.099 240.083 184.96C251.547 181.821 263.724 182.538 274.741 187.001C285.758 191.464 295.005 199.425 301.06 209.661C307.114 219.897 309.642 231.84 308.253 243.653C306.864 255.466 301.635 266.496 293.372 275.045C285.108 283.595 274.267 289.19 262.516 290.972C250.765 292.753 238.754 290.622 228.332 284.905C224.582 287.575 215.433 292.902 206.396 289.065L217.274 276.86C211.866 271.789 207.557 265.659 204.614 258.852C201.671 252.045 200.157 244.706 200.165 237.289Z" fill="white"/>
<path opacity="0.1" d="M299.077 237.014C299.076 223.446 293.999 210.369 284.846 200.359C275.692 190.349 263.126 184.133 249.621 182.933C251.201 182.794 252.8 182.719 254.416 182.719C268.801 182.724 282.595 188.447 292.765 198.628C302.935 208.81 308.648 222.618 308.648 237.014C308.648 251.411 302.935 265.219 292.765 275.4C282.595 285.582 268.801 291.305 254.416 291.31C252.802 291.31 251.207 291.234 249.629 291.095C263.132 289.894 275.696 283.676 284.848 273.667C294 263.658 299.076 250.582 299.077 237.014Z" fill="black"/>
<path d="M262.03 226.187H223.265V229.79H262.03V226.187Z" fill="#5ECBCB"/>
<path d="M290.83 238.651H223.265V242.254H290.83V238.651Z" fill="#5ECBCB"/>
<path d="M290.763 251.114H223.265V254.717H290.763V251.114Z" fill="#5ECBCB"/>
<path opacity="0.2" d="M142.609 254.163C127.315 246.467 99.3127 226.098 90.6298 215.374C79.8222 202.036 91.6099 191.891 91.6099 191.891C104.976 183.452 120.961 212.412 120.961 212.412L137.859 226.131C139.655 235.322 141.26 245.137 142.609 254.163Z" fill="black"/>
<path d="M186.781 242.921C186.781 242.921 210.109 252.4 213.949 241.745C217.788 231.09 195.531 231.273 195.531 231.273L186.793 232.512L186.781 242.921Z" fill="#9F616A"/>
<path d="M88.6201 187.558C88.6201 187.558 76.835 197.704 87.6366 211.04C98.4381 224.376 139.135 252.652 148.079 252.87C157.024 253.089 180.414 244.122 180.414 244.122L189.565 245.798L191.29 228.604L177.81 229.921L139.789 225.797L117.968 208.077C117.968 208.077 101.984 179.121 88.6201 187.558Z" fill="#5ECBCB"/>
<path opacity="0.2" d="M131.553 309.783L133.614 357.998L128.386 309.783H131.553Z" fill="black"/>
</g>
<defs>
<clipPath id="clip0">
<rect width="505" height="470" fill="white"/>
</clipPath>
</defs>
</svg>
