<svg width="500" height="414" viewBox="0 0 500 414" fill="none" xmlns="http://www.w3.org/2000/svg">
<g clip-path="url(#clip0)">
<path d="M372.749 397.163C388.523 409.397 408.342 415.195 428.216 413.39C448.09 411.585 466.543 402.311 479.86 387.435C493.176 372.56 500.367 353.188 499.986 333.218C499.604 313.249 491.677 294.166 477.802 279.812L372.749 397.163Z" fill="#F2F2F2"/>
<path d="M179.751 123.07L82.2252 230.673C87.5473 242.249 95.5793 252.371 105.641 260.18L210.693 142.829C202.073 133.901 191.473 127.132 179.751 123.07Z" fill="#F2F2F2"/>
<path d="M179.36 123.126V60.2062H128.035V122.932C144.691 117.297 162.747 117.366 179.36 123.126Z" fill="#5ECBCB"/>
<path d="M128.035 271.446V335.829H179.36V271.252C162.747 277.012 144.691 277.081 128.035 271.446Z" fill="#5ECBCB"/>
<path d="M153.974 276.452C110.306 276.452 74.7793 240.895 74.7793 197.189C74.7793 153.484 110.306 117.927 153.974 117.927C197.641 117.927 233.168 153.484 233.168 197.189C233.168 240.895 197.641 276.452 153.974 276.452ZM153.974 118.479C110.61 118.479 75.3312 153.788 75.3312 197.189C75.3312 240.59 110.61 275.899 153.974 275.899C197.337 275.899 232.616 240.59 232.616 197.189C232.616 153.788 197.337 118.479 153.974 118.479Z" fill="black"/>
<path d="M98.234 197.189C98.234 211.985 104.107 226.175 114.56 236.637C125.013 247.099 139.19 252.976 153.974 252.976V141.402C139.19 141.402 125.013 147.279 114.56 157.741C104.107 168.204 98.234 182.393 98.234 197.189Z" fill="#575A89"/>
<path d="M153.974 141.402V252.976C168.757 252.976 182.934 247.099 193.387 236.637C203.84 226.175 209.713 211.985 209.713 197.189C209.713 182.393 203.84 168.204 193.387 157.741C182.934 147.279 168.757 141.402 153.974 141.402Z" fill="#5ECBCB"/>
<path d="M153.973 207.684C158.241 207.684 161.7 204.222 161.7 199.951C161.7 195.68 158.241 192.218 153.973 192.218C149.706 192.218 146.247 195.68 146.247 199.951C146.247 204.222 149.706 207.684 153.973 207.684Z" fill="#2F2E41"/>
<path d="M153.96 171.592L155.885 186.876L157.81 202.16H153.96H150.11L152.035 186.876L153.96 171.592Z" fill="#2F2E41"/>
<path d="M200.041 200.385L174.924 201.325L149.808 202.265L149.822 200.069L149.836 197.873L174.938 199.129L200.041 200.385Z" fill="#2F2E41"/>
<path d="M235.927 203.817C234.649 203.817 234.134 202.939 233.48 201.826C233.317 201.548 233.14 201.247 232.935 200.929L233.4 200.63C233.609 200.955 233.79 201.263 233.956 201.546C234.607 202.655 234.965 203.265 235.927 203.265C239.122 203.265 241.722 197.937 241.722 191.389C241.722 184.841 239.122 179.514 235.927 179.514C234.082 179.514 232.8 180.653 231.768 183.208L231.256 183C232.384 180.207 233.825 178.961 235.927 178.961C239.426 178.961 242.274 184.536 242.274 191.389C242.274 198.242 239.426 203.817 235.927 203.817Z" fill="black"/>
<path d="M161.7 394.378C203.152 394.378 236.755 393.142 236.755 391.616C236.755 390.091 203.152 388.855 161.7 388.855C120.248 388.855 86.6445 390.091 86.6445 391.616C86.6445 393.142 120.248 394.378 161.7 394.378Z" fill="#F2F2F2"/>
<path d="M427.152 99.9755C433.553 99.9755 438.742 94.7822 438.742 88.3761C438.742 81.9699 433.553 76.7767 427.152 76.7767C420.752 76.7767 415.563 81.9699 415.563 88.3761C415.563 94.7822 420.752 99.9755 427.152 99.9755Z" fill="#F2F2F2"/>
<path d="M78.9183 3.28342e-05C65.692 0.00493275 52.6789 3.33556 41.074 9.68608C29.469 16.0366 19.6442 25.2034 12.5016 36.3449C5.35903 47.4863 1.12767 60.2452 0.196089 73.45C-0.735492 86.6548 1.66256 99.8822 7.17003 111.918L104.696 4.31447C96.4033 1.45022 87.691 -0.00797882 78.9183 3.28342e-05Z" fill="#F2F2F2"/>
<path d="M341.135 146.757C350.656 146.757 358.374 139.032 358.374 129.503C358.374 119.974 350.656 112.249 341.135 112.249C331.614 112.249 323.896 119.974 323.896 129.503C323.896 139.032 331.614 146.757 341.135 146.757Z" fill="#2F2E41"/>
<path d="M312.132 237.667C312.132 237.667 325.896 272.469 327.345 272.469C328.794 272.469 330.967 259.418 330.967 259.418L322.274 234.767L312.132 237.667Z" fill="#A1616A"/>
<path d="M332.416 142.688C332.416 142.688 336.038 157.914 334.589 160.814C333.14 163.714 337.487 168.064 337.487 168.064H347.628L354.873 156.463L356.321 151.388C356.321 151.388 351.975 139.788 352.699 138.338C353.424 136.888 332.416 142.688 332.416 142.688Z" fill="#A1616A"/>
<path opacity="0.1" d="M332.416 142.688C332.416 142.688 336.038 157.914 334.589 160.814C333.14 163.714 337.487 168.064 337.487 168.064H347.628L354.873 156.463L356.321 151.388C356.321 151.388 351.975 139.788 352.699 138.338C353.424 136.888 332.416 142.688 332.416 142.688Z" fill="#494057"/>
<path d="M372.983 389.199V397.175L382.4 399.35L383.125 389.199H372.983Z" fill="#575A89"/>
<path d="M334.589 246.368C334.589 246.368 324.447 264.494 328.069 273.919C331.691 283.344 345.455 329.747 345.455 329.747C345.455 329.747 353.424 355.848 353.424 357.298C353.424 358.748 359.943 390.649 362.117 391.374C364.29 392.099 383.849 394.275 384.573 392.099C385.298 389.924 386.022 378.324 383.849 376.149C381.676 373.974 370.085 306.545 370.085 306.545L368.636 284.069L386.747 339.897C386.747 339.897 391.817 373.249 393.991 375.424C396.164 377.599 389.644 379.774 391.817 381.949C393.991 384.124 401.959 389.924 401.235 392.099C400.51 394.274 418.621 394.275 420.794 392.824C422.967 391.374 422.243 368.898 422.243 368.898L412.101 338.447L400.51 264.493C400.51 264.493 396.888 242.742 393.991 242.742C391.093 242.742 334.589 246.368 334.589 246.368Z" fill="#2F2E41"/>
<path d="M375.156 394.274C375.156 394.274 369.361 389.199 366.463 390.649C363.565 392.099 354.148 405.875 351.25 405.15C348.353 404.425 344.006 412.953 351.25 413.678C358.495 414.403 370.085 412.953 370.085 412.953C372.482 413.351 374.901 413.594 377.329 413.678C380.227 413.678 386.747 414.403 386.747 413.678C386.747 412.953 385.298 396.45 384.573 396.45C383.849 396.45 375.88 396.45 375.156 394.274Z" fill="#2F2E41"/>
<path d="M414.999 389.199C414.999 389.199 407.754 387.749 407.03 389.199C406.306 390.649 403.408 394.999 403.408 395.724C403.408 396.45 404.857 405.15 404.857 405.875C404.857 406.6 406.306 408.775 407.754 410.225C408.164 410.571 408.454 411.038 408.584 411.558C408.714 412.079 408.677 412.627 408.479 413.125C408.479 413.125 427.314 415.3 427.314 412.4C427.314 409.5 425.14 402.975 423.691 401.525C422.243 400.075 419.345 389.924 414.999 389.199Z" fill="#2F2E41"/>
<path d="M341.109 149.213C349.51 149.213 356.321 142.396 356.321 133.987C356.321 125.578 349.51 118.762 341.109 118.762C332.707 118.762 325.896 125.578 325.896 133.987C325.896 142.396 332.707 149.213 341.109 149.213Z" fill="#A1616A"/>
<path d="M335.313 161.539C335.313 161.539 344.006 166.614 349.077 158.639C354.148 150.663 370.085 174.589 370.085 174.589L374.431 248.543C374.431 248.543 366.463 249.268 352.699 252.893C338.935 256.518 332.416 247.818 332.416 247.818L331.691 205.766L333.14 186.19L330.967 170.239L332.416 160.814L335.313 161.539Z" fill="#5ECBCB"/>
<path d="M319.376 170.964C319.376 170.964 313.581 172.414 312.132 182.565C310.683 192.715 307.786 223.167 307.786 223.167L311.408 241.292C311.408 241.292 321.55 233.317 325.172 236.942L322.998 226.067L325.172 219.541L318.652 191.265L319.376 170.964Z" fill="#5ECBCB"/>
<path d="M333.784 149.213C333.784 149.213 332.416 149.213 332.416 154.288C332.416 159.364 318.652 166.614 318.652 166.614C318.652 166.614 317.203 168.789 317.203 174.589C317.203 180.39 317.203 194.165 318.652 198.515C320.101 202.866 322.274 217.366 322.998 218.816C323.723 220.266 323.723 226.792 322.274 228.242C320.825 229.692 325.896 238.392 327.345 239.117C328.794 239.842 322.274 258.693 325.896 259.418C329.518 260.143 336.038 250.718 338.211 245.643C340.384 240.567 338.935 170.239 338.211 165.164C337.487 160.089 333.784 149.213 333.784 149.213Z" fill="#575A89"/>
<path d="M353.966 144.547C353.966 144.547 353.424 141.238 357.046 144.138C360.668 147.038 361.392 149.213 361.392 149.213C361.392 149.213 380.227 149.213 380.951 151.388C381.676 153.563 380.52 172.074 380.52 172.074L390.039 207.499C390.039 207.499 403.408 248.543 404.857 249.993C406.306 251.443 393.266 243.468 386.022 249.268C378.778 255.068 365.739 257.968 364.29 254.343C362.841 250.718 346.904 166.614 346.904 166.614C346.904 166.614 346.904 152.838 349.077 151.388C351.251 149.938 353.966 144.547 353.966 144.547Z" fill="#575A89"/>
<path d="M392.542 213.016L389.644 246.368L388.92 249.268L399.786 263.768C399.786 263.768 401.959 255.793 401.235 252.893C400.51 249.993 404.857 217.366 404.857 217.366L392.542 213.016Z" fill="#A1616A"/>
<path d="M329.198 123.164C329.198 123.164 325.678 114.005 330.781 111.011L332.189 115.062C332.189 115.062 345.036 107.312 348.38 109.073L345.212 113.301C345.212 113.301 360.171 113.301 361.226 119.113L355.947 119.289C355.947 119.289 361.578 122.988 361.754 128.977L350.492 129.681L355.947 132.851C355.947 132.851 335.533 135.67 330.605 127.567L329.198 123.164Z" fill="#2F2E41"/>
<path d="M326.149 123.526C326.149 123.526 330.205 131.646 335.614 129.616C341.022 127.586 335.614 120.143 335.614 120.143L332.008 118.339L326.149 123.526Z" fill="#2F2E41"/>
<path d="M456.402 413.435H298.565V413.987H456.402V413.435Z" fill="black"/>
<path d="M379.502 152.838C379.502 152.838 383.849 153.563 386.747 158.639C389.644 163.714 404.132 197.065 404.857 198.515C405.581 199.965 405.581 219.541 405.581 219.541C405.581 219.541 395.44 213.741 391.093 217.366L390.369 208.666L380.951 175.314L379.502 164.439L379.502 152.838Z" fill="#5ECBCB"/>
</g>
<defs>
<clipPath id="clip0">
<rect width="500" height="414" fill="white"/>
</clipPath>
</defs>
</svg>
