<svg width="593" height="366" viewBox="0 0 593 366" fill="none" xmlns="http://www.w3.org/2000/svg">
<g clip-path="url(#clip0)">
<path opacity="0.1" d="M0 365.995H573.097C573.097 365.995 623.339 300.932 564.202 234.052C542.258 209.25 540.589 178.582 547.162 149.813C564.932 72.0475 493.818 3.22693 416.662 23.4238C415.192 23.8118 413.707 24.205 412.212 24.6134C295.913 56.3434 200.696 24.4551 164.05 8.66927C149.448 2.35153 133.606 -0.577278 117.712 0.102434C76.5848 1.94037 14.2585 17.7875 72.15 105.079C153.767 228.14 0 365.995 0 365.995Z" fill="#5ECBCB"/>
<path d="M138.044 355.279C144.385 355.279 149.526 348.547 149.526 340.243C149.526 331.94 144.385 325.208 138.044 325.208C131.702 325.208 126.561 331.94 126.561 340.243C126.561 348.547 131.702 355.279 138.044 355.279Z" fill="#3F3D56"/>
<path d="M138.044 336.899C144.385 336.899 149.526 330.168 149.526 321.864C149.526 313.56 144.385 306.829 138.044 306.829C131.702 306.829 126.561 313.56 126.561 321.864C126.561 330.168 131.702 336.899 138.044 336.899Z" fill="#3F3D56"/>
<path d="M138.044 318.52C144.385 318.52 149.526 311.788 149.526 303.485C149.526 295.181 144.385 288.449 138.044 288.449C131.702 288.449 126.561 295.181 126.561 303.485C126.561 311.788 131.702 318.52 138.044 318.52Z" fill="#3F3D56"/>
<path d="M138.044 300.141C144.385 300.141 149.526 293.409 149.526 285.105C149.526 276.801 144.385 270.07 138.044 270.07C131.702 270.07 126.561 276.801 126.561 285.105C126.561 293.409 131.702 300.141 138.044 300.141Z" fill="#3F3D56"/>
<path d="M138.044 281.761C144.385 281.761 149.526 275.03 149.526 266.726C149.526 258.422 144.385 251.69 138.044 251.69C131.702 251.69 126.561 258.422 126.561 266.726C126.561 275.03 131.702 281.761 138.044 281.761Z" fill="#3F3D56"/>
<path d="M138.044 263.382C144.385 263.382 149.526 256.65 149.526 248.346C149.526 240.043 144.385 233.311 138.044 233.311C131.702 233.311 126.561 240.043 126.561 248.346C126.561 256.65 131.702 263.382 138.044 263.382Z" fill="#3F3D56"/>
<path d="M138.044 245.002C144.385 245.002 149.526 238.271 149.526 229.967C149.526 221.663 144.385 214.932 138.044 214.932C131.702 214.932 126.561 221.663 126.561 229.967C126.561 238.271 131.702 245.002 138.044 245.002Z" fill="#3F3D56"/>
<path d="M233.475 353.191C236.998 353.191 239.854 349.451 239.854 344.838C239.854 340.225 236.998 336.486 233.475 336.486C229.951 336.486 227.095 340.225 227.095 344.838C227.095 349.451 229.951 353.191 233.475 353.191Z" fill="#3F3D56"/>
<path d="M233.475 342.98C236.998 342.98 239.854 339.24 239.854 334.627C239.854 330.015 236.998 326.275 233.475 326.275C229.951 326.275 227.095 330.015 227.095 334.627C227.095 339.24 229.951 342.98 233.475 342.98Z" fill="#3F3D56"/>
<path d="M233.475 332.769C236.998 332.769 239.854 329.03 239.854 324.417C239.854 319.804 236.998 316.064 233.475 316.064C229.951 316.064 227.095 319.804 227.095 324.417C227.095 329.03 229.951 332.769 233.475 332.769Z" fill="#3F3D56"/>
<path d="M233.475 322.558C236.998 322.558 239.854 318.819 239.854 314.206C239.854 309.593 236.998 305.854 233.475 305.854C229.951 305.854 227.095 309.593 227.095 314.206C227.095 318.819 229.951 322.558 233.475 322.558Z" fill="#3F3D56"/>
<path d="M233.475 312.347C236.998 312.347 239.854 308.608 239.854 303.995C239.854 299.382 236.998 295.643 233.475 295.643C229.951 295.643 227.095 299.382 227.095 303.995C227.095 308.608 229.951 312.347 233.475 312.347Z" fill="#3F3D56"/>
<path d="M233.475 302.137C236.998 302.137 239.854 298.397 239.854 293.784C239.854 289.171 236.998 285.432 233.475 285.432C229.951 285.432 227.095 289.171 227.095 293.784C227.095 298.397 229.951 302.137 233.475 302.137Z" fill="#3F3D56"/>
<path d="M233.475 291.926C236.998 291.926 239.854 288.187 239.854 283.574C239.854 278.961 236.998 275.221 233.475 275.221C229.951 275.221 227.095 278.961 227.095 283.574C227.095 288.187 229.951 291.926 233.475 291.926Z" fill="#3F3D56"/>
<path d="M181.028 104.191C182.596 102.192 184.024 100.089 185.305 97.8958L155.139 92.9385L187.77 93.1784C190.899 86.3652 192.606 78.9851 192.786 71.4894C192.967 63.9936 191.618 56.5398 188.821 49.5835L145.04 72.3025L185.407 42.5994C181.624 36.0613 176.536 30.3725 170.46 25.8873C164.384 21.4021 157.449 18.2166 150.089 16.5292C142.729 14.8418 135.1 14.6887 127.678 16.0794C120.255 17.47 113.199 20.3747 106.948 24.6125C100.697 28.8503 95.3848 34.3304 91.3429 40.7114C87.3011 47.0924 84.6158 54.2377 83.4545 61.7021C82.2932 69.1666 82.6806 76.7903 84.5928 84.0985C86.5049 91.4066 89.9007 98.2425 94.5687 104.181C92.1196 107.294 90.0134 110.663 88.2866 114.228L127.449 134.583L85.6992 120.559C82.7657 129.23 82.0405 138.496 83.5892 147.519C85.1379 156.541 88.9116 165.035 94.5687 172.23C88.1883 180.346 84.2195 190.094 83.1159 200.36C82.0123 210.626 83.8184 220.996 88.3279 230.284C92.8374 239.571 99.8682 247.402 108.617 252.88C117.365 258.359 127.477 261.264 137.798 261.264C148.119 261.264 158.232 258.359 166.98 252.88C175.729 247.402 182.76 239.571 187.269 230.284C191.779 220.996 193.585 210.626 192.481 200.36C191.378 190.094 187.409 180.346 181.028 172.23C188.652 162.53 192.796 150.549 192.796 138.21C192.796 125.872 188.652 113.891 181.028 104.191Z" fill="#5ECBCB"/>
<path opacity="0.1" d="M82.7955 138.213C82.777 150.555 86.9255 162.542 94.5687 172.23C88.1883 180.346 84.2195 190.094 83.1159 200.36C82.0123 210.626 83.8185 220.996 88.328 230.284C92.8375 239.571 99.8682 247.402 108.617 252.88C117.365 258.359 127.478 261.264 137.799 261.264C148.119 261.264 158.232 258.359 166.98 252.88C175.729 247.402 182.76 239.571 187.269 230.284C191.779 220.996 193.585 210.626 192.481 200.36C191.378 190.094 187.409 180.346 181.028 172.23C188.397 162.867 82.7955 132.035 82.7955 138.213Z" fill="black"/>
<path d="M204.784 190.967C203.738 189.637 202.786 188.234 201.936 186.77L222.048 183.462L200.293 183.625C198.207 179.083 197.069 174.163 196.949 169.165C196.829 164.168 197.729 159.198 199.594 154.56L228.78 169.723L201.865 149.915C204.389 145.56 207.781 141.771 211.832 138.785C215.882 135.798 220.503 133.678 225.408 132.555C230.313 131.432 235.396 131.332 240.342 132.259C245.287 133.186 249.989 135.122 254.154 137.946C258.32 140.77 261.86 144.421 264.554 148.672C267.248 152.923 269.039 157.684 269.815 162.657C270.59 167.631 270.335 172.711 269.064 177.581C267.792 182.451 265.533 187.008 262.425 190.967C264.056 193.039 265.457 195.281 266.605 197.655L240.497 211.225L268.335 201.887C270.293 207.668 270.778 213.847 269.746 219.862C268.714 225.878 266.198 231.541 262.425 236.339C266.675 241.75 269.318 248.249 270.05 255.092C270.783 261.935 269.577 268.846 266.57 275.036C263.562 281.226 258.875 286.444 253.043 290.095C247.212 293.746 240.471 295.682 233.592 295.682C226.713 295.682 219.972 293.746 214.141 290.095C208.309 286.444 203.622 281.226 200.614 275.036C197.607 268.846 196.401 261.935 197.134 255.092C197.866 248.249 200.509 241.75 204.759 236.339C199.677 229.871 196.915 221.884 196.915 213.658C196.915 205.432 199.677 197.444 204.759 190.977L204.784 190.967Z" fill="#5ECBCB"/>
<path opacity="0.1" d="M270.274 213.63C270.286 221.859 267.52 229.852 262.425 236.313C266.675 241.725 269.318 248.224 270.05 255.067C270.783 261.91 269.577 268.821 266.57 275.01C263.562 281.2 258.875 286.418 253.043 290.069C247.212 293.72 240.471 295.656 233.592 295.656C226.713 295.656 219.972 293.72 214.141 290.069C208.309 286.418 203.622 281.2 200.615 275.01C197.607 268.821 196.401 261.91 197.134 255.067C197.867 248.224 200.509 241.725 204.759 236.313C199.87 230.084 270.274 209.545 270.274 213.63Z" fill="black"/>
<path d="M0 365.995C0 365.995 61.5046 306.262 82.7955 326.357C104.086 346.452 193.98 351.797 202.263 350.612C210.546 349.428 259.037 347.064 286.242 350.02C313.448 352.976 563.018 341.739 573.072 365.995H0Z" fill="#3F3D56"/>
<path opacity="0.1" d="M398.606 73.7421H370.947C371.614 72.9004 371.974 71.8556 371.967 70.781C371.965 70.1738 371.848 69.5724 371.62 69.0094H384.378C385.633 69.0094 386.836 68.5108 387.723 67.6233C388.611 66.7357 389.109 65.5319 389.109 64.2768C389.109 63.0216 388.611 61.8178 387.723 60.9302C386.836 60.0427 385.633 59.5441 384.378 59.5441H308.12C306.867 59.5481 305.666 60.048 304.779 60.9347C303.893 61.8214 303.393 63.0228 303.389 64.2768C303.39 64.8846 303.509 65.4865 303.742 66.0483H290.983C289.755 66.0887 288.59 66.6053 287.736 67.4889C286.881 68.3725 286.403 69.554 286.403 70.7836C286.403 72.0132 286.881 73.1946 287.736 74.0783C288.59 74.9619 289.755 75.4785 290.983 75.5188H318.643C317.975 76.3586 317.615 77.4018 317.622 78.4748C317.626 79.7288 318.126 80.9302 319.012 81.8169C319.899 82.7036 321.1 83.2035 322.353 83.2075H398.606C399.861 83.2075 401.064 82.7089 401.951 81.8214C402.839 80.9338 403.337 79.73 403.337 78.4748C403.337 77.2196 402.839 76.0159 401.951 75.1283C401.064 74.2408 399.861 73.7421 398.606 73.7421Z" fill="#5ECBCB"/>
<path opacity="0.1" d="M523.391 141.761H495.732C496.409 140.923 496.778 139.878 496.778 138.8C496.779 138.193 496.661 137.591 496.431 137.029H509.189C510.444 137.029 511.647 136.53 512.534 135.642C513.421 134.755 513.92 133.551 513.92 132.296C513.92 131.041 513.421 129.837 512.534 128.949C511.647 128.062 510.444 127.563 509.189 127.563H432.91C431.657 127.567 430.456 128.067 429.57 128.954C428.684 129.841 428.184 131.042 428.18 132.296C428.178 132.903 428.296 133.505 428.527 134.067H415.769C414.54 134.108 413.376 134.624 412.521 135.508C411.666 136.392 411.188 137.573 411.188 138.803C411.188 140.032 411.666 141.214 412.521 142.097C413.376 142.981 414.54 143.498 415.769 143.538H443.428C442.761 144.378 442.4 145.421 442.408 146.494C442.412 147.748 442.911 148.949 443.798 149.836C444.684 150.723 445.885 151.223 447.138 151.227H523.391C524.646 151.227 525.849 150.728 526.737 149.84C527.624 148.953 528.122 147.749 528.122 146.494C528.122 145.239 527.624 144.035 526.737 143.147C525.849 142.26 524.646 141.761 523.391 141.761Z" fill="#5ECBCB"/>
<path opacity="0.1" d="M274.005 112.972H257.802C258.198 112.482 258.414 111.871 258.414 111.241C258.41 110.891 258.341 110.545 258.21 110.22H265.692C266.427 110.22 267.131 109.928 267.651 109.408C268.171 108.888 268.463 108.183 268.463 107.448C268.463 106.713 268.171 106.008 267.651 105.488C267.131 104.968 266.427 104.676 265.692 104.676H220.972C220.238 104.678 219.534 104.971 219.015 105.491C218.496 106.01 218.203 106.713 218.201 107.448C218.204 107.799 218.275 108.145 218.41 108.469H210.949C210.214 108.469 209.509 108.761 208.989 109.281C208.47 109.801 208.178 110.506 208.178 111.241C208.178 111.976 208.47 112.682 208.989 113.201C209.509 113.721 210.214 114.013 210.949 114.013H227.152C226.756 114.503 226.539 115.114 226.539 115.744C226.541 116.479 226.833 117.184 227.352 117.705C227.871 118.225 228.575 118.519 229.31 118.521H274.005C274.72 118.491 275.395 118.185 275.89 117.668C276.386 117.151 276.662 116.463 276.662 115.747C276.662 115.031 276.386 114.342 275.89 113.825C275.395 113.308 274.72 113.003 274.005 112.972Z" fill="#5ECBCB"/>
<path d="M351.855 338.993C351.695 340.048 351.397 341.078 350.967 342.056C352.712 342.701 354.531 343.121 356.382 343.307C356.5 343.331 356.623 343.313 356.729 343.256C356.867 343.148 356.846 342.934 356.826 342.745C356.792 341.735 356.983 340.73 357.387 339.804C358.408 336.962 359.415 334.117 360.408 331.268C358.643 330.467 354.989 330.952 353.498 332.289C352.126 333.525 352.187 337.267 351.855 338.993Z" fill="#A1616A"/>
<path d="M377.178 343.756C377.122 343.874 377.091 344.003 377.086 344.134C377.086 344.588 377.688 344.746 378.142 344.787C380.333 344.988 382.494 345.439 384.582 346.13C384.838 345.374 384.48 344.562 384.47 343.771C384.47 342.668 385.118 341.688 385.521 340.662C386.241 338.849 386.185 336.838 386.119 334.888C384.373 335.005 380.209 334.198 379.234 336.006C378.693 337.027 378.724 338.558 378.479 339.682C378.148 341.07 377.713 342.432 377.178 343.756Z" fill="#A1616A"/>
<path d="M366.798 265.291L362.205 265.562C361.906 265.546 361.611 265.632 361.368 265.807C361.173 266.029 361.063 266.313 361.056 266.608C360.444 271.203 361.521 275.895 360.949 280.49C360.72 282.297 360.24 284.064 359.867 285.84C359.24 288.807 358.898 291.824 358.556 294.836C358.332 296.328 358.274 297.84 358.382 299.344C358.515 300.61 358.893 301.846 358.939 303.117C358.935 304.621 358.672 306.113 358.163 307.528C357.4 309.961 356.444 312.328 355.305 314.609C354.32 316.585 353.192 318.51 352.595 320.634C351.646 324.013 352.085 327.694 350.957 331.018C350.676 331.835 350.299 332.677 350.447 333.525C350.646 334.622 351.712 335.403 352.81 335.613C353.919 335.751 355.045 335.666 356.122 335.363C357.913 334.98 359.816 334.535 361.077 333.208C361.81 332.331 362.371 331.323 362.73 330.237C363.562 328.195 364.389 326.122 365.149 324.039C365.476 323.052 365.869 322.089 366.323 321.154C366.741 320.358 367.262 319.623 367.706 318.826C368.437 317.458 369.032 316.022 369.482 314.538C372.758 304.48 373.758 293.606 378.709 284.263C378.943 283.819 378.974 283.242 379.219 282.823C379.697 284.344 379.928 285.931 379.903 287.525C380.015 291.147 379.928 294.772 379.642 298.384C379.438 301.019 379.132 303.648 379.071 306.292C379.071 307.497 379.071 308.707 379.096 309.917V310.903C379.137 312.623 379.178 314.344 379.347 316.054C380.066 323.12 377.841 329.992 378.642 337.047C378.648 337.297 378.729 337.54 378.877 337.742C379.219 338.109 379.826 337.91 380.291 337.711C381.823 337.047 383.454 336.64 385.118 336.506C385.625 336.513 386.127 336.401 386.583 336.179C387.318 335.74 387.527 334.786 387.66 333.938C388.772 327.066 389.883 320.194 390.992 313.323C391.287 311.679 391.498 310.021 391.625 308.355C391.753 306.19 391.594 304.015 391.804 301.861C392.094 298.798 393.335 295.888 394.263 292.978C394.743 291.446 395.228 289.94 395.667 288.408C396.106 286.877 396.509 285.289 396.866 283.716C397.478 280.98 397.958 278.157 397.535 275.384C397.111 272.612 395.651 269.876 393.192 268.538C391.39 267.553 389.277 267.405 387.241 267.18C381.429 266.542 375.636 265.138 369.814 265.649C368.803 265.74 367.839 265.23 366.798 265.291Z" fill="#3F3D56"/>
<path d="M353.917 359.001C354.224 358.524 354.467 358.009 354.642 357.469L356.525 352.364C357.121 350.839 357.632 349.283 358.056 347.702C358.52 345.812 358.729 343.869 358.678 341.923C356.761 341.911 354.855 341.644 353.009 341.127C352.313 340.885 351.589 340.733 350.855 340.672C350.354 340.686 349.86 340.801 349.404 341.01C348.948 341.218 348.538 341.516 348.199 341.886C347.86 342.256 347.599 342.691 347.431 343.164C347.263 343.636 347.192 344.138 347.221 344.639C347.274 344.946 347.301 345.257 347.303 345.568C347.263 345.878 347.174 346.18 347.038 346.462L345.027 351.363C344.459 352.549 344.113 353.83 344.006 355.141C343.863 359.726 351.023 363.172 353.917 359.001Z" fill="#3F3D56"/>
<path d="M373.309 358.556C373.207 359.324 373.207 360.102 373.309 360.869C373.707 363.029 375.795 364.667 377.984 364.821C379.086 364.858 380.18 364.622 381.169 364.135C382.158 363.648 383.011 362.924 383.654 362.028C384.069 361.482 384.389 360.869 384.598 360.216C384.77 359.587 384.876 358.942 384.914 358.291L385.726 349.699C385.843 348.494 386.333 346.753 385.726 345.614C385.215 344.649 383.975 344.333 383.021 343.97C381.435 343.32 379.716 343.063 378.009 343.22C375.034 343.47 375.065 346.508 374.616 348.933C374.031 352.125 373.595 355.333 373.309 358.556Z" fill="#3F3D56"/>
<path d="M374.192 184.049C372.819 185.974 370.819 187.388 369.472 189.333C368.251 191.108 367.64 193.231 367.731 195.383C367.777 196.486 368.007 197.614 367.731 198.681C367.458 199.497 367.009 200.243 366.415 200.866C364.194 203.471 361.29 205.402 358.03 206.441C357.637 206.564 357.147 206.829 357.244 207.228C357.313 207.403 357.441 207.55 357.607 207.641L364.241 212.394C368.135 215.187 372.049 218.01 376.356 220.098C384.038 223.823 392.653 225.179 401.107 223.994C400.024 222.3 399.351 220.377 399.142 218.378C398.887 215.978 399.316 213.558 399.27 211.143C399.234 208.683 398.714 206.254 397.739 203.996C397.167 202.684 396.442 201.443 396.004 200.08C395.542 198.416 395.295 196.701 395.269 194.975L394.927 189.262C394.913 188.202 394.753 187.149 394.452 186.132C394.165 185.354 393.755 184.626 393.238 183.978C390.808 180.802 387.114 179.444 383.245 179.112C381.556 178.969 379.489 178.831 377.933 179.567C376.07 180.48 375.315 182.487 374.192 184.049Z" fill="#3F3D56"/>
<path d="M373.559 204.654C373.352 205.181 373.029 205.653 372.615 206.039C372.201 206.424 371.706 206.711 371.166 206.88C370.085 207.217 368.96 207.389 367.828 207.391L365.394 207.503C365.125 207.48 364.856 207.56 364.644 207.728C364.512 207.88 364.436 208.073 364.43 208.274C364.277 209.571 365.032 210.781 365.787 211.848C368.206 215.238 371.105 218.459 374.886 220.19C377.769 221.511 380.996 221.884 384.104 221.257C387.211 220.629 390.041 219.034 392.186 216.698C392.435 216.474 392.604 216.174 392.666 215.845C392.656 215.6 392.583 215.361 392.454 215.152C392.326 214.943 392.146 214.77 391.931 214.651C391.125 214.053 390.176 213.665 389.379 213.073C388.011 212.028 387.035 210.551 386.608 208.882C386.188 207.222 386.11 205.493 386.379 203.802C383.353 202.939 380.056 203.623 377.024 202.781C376.315 202.587 374.983 201.841 374.238 202.27C373.493 202.699 373.794 203.929 373.559 204.654Z" fill="#A1616A"/>
<path opacity="0.1" d="M373.559 204.654C373.352 205.181 373.029 205.653 372.615 206.039C372.201 206.424 371.706 206.711 371.166 206.88C370.085 207.217 368.96 207.389 367.828 207.391L365.394 207.503C365.125 207.48 364.856 207.56 364.644 207.728C364.512 207.88 364.436 208.073 364.43 208.274C364.277 209.571 365.032 210.781 365.787 211.848C368.206 215.238 371.105 218.459 374.886 220.19C377.769 221.511 380.996 221.884 384.104 221.257C387.211 220.629 390.041 219.034 392.186 216.698C392.435 216.474 392.604 216.174 392.666 215.845C392.656 215.6 392.583 215.361 392.454 215.152C392.326 214.943 392.146 214.77 391.931 214.651C391.125 214.053 390.176 213.665 389.379 213.073C388.011 212.028 387.035 210.551 386.608 208.882C386.188 207.222 386.11 205.493 386.379 203.802C383.353 202.939 380.056 203.623 377.024 202.781C376.315 202.587 374.983 201.841 374.238 202.27C373.493 202.699 373.794 203.929 373.559 204.654Z" fill="black"/>
<path d="M381.25 209.709C386.878 209.709 391.441 205.144 391.441 199.513C391.441 193.883 386.878 189.318 381.25 189.318C375.622 189.318 371.059 193.883 371.059 199.513C371.059 205.144 375.622 209.709 381.25 209.709Z" fill="#A1616A"/>
<path d="M388.665 209.903C386.778 210.714 384.82 211.35 382.817 211.802C380.8 212.251 378.699 212.136 376.744 211.47C375.42 210.886 374.16 210.168 372.983 209.326C370.87 207.973 368.563 206.773 366.063 206.528C364.894 206.406 363.618 206.528 362.695 207.253C361.826 208.046 361.294 209.143 361.21 210.316C360.873 212.747 361.449 215.197 361.965 217.597C363.919 226.71 365.027 236.242 362.837 245.309C361.689 250.123 362.929 255.131 363.098 260.079C363.078 261.778 363.303 263.472 363.766 265.107C364.302 266.716 365.384 268.222 366.946 268.88C368.4 269.493 370.048 269.304 371.62 269.176C373.493 269.028 375.448 269.003 377.147 269.789C378.351 270.351 379.479 271.321 380.796 271.203C381.47 271.142 382.082 270.795 382.75 270.693C384.093 270.468 385.379 271.203 386.598 271.806C389.62 273.302 392.925 274.139 396.295 274.261C398.014 270.213 397.126 265.659 397.315 261.263C397.392 259.619 397.637 257.985 397.734 256.341C397.815 254.359 397.79 252.373 397.657 250.394L397.035 237.018C396.856 233.377 398.714 229.814 398.566 226.179C398.463 224.485 398.229 222.802 397.866 221.145C397.754 220.583 397.637 220.027 397.479 219.481C396.356 215.646 393.125 212.844 390.038 210.327C389.863 210.146 389.646 210.013 389.406 209.939C389.166 209.865 388.911 209.853 388.665 209.903Z" fill="#5ECBCB"/>
<path d="M371.63 269.6C371.671 273.174 370.385 276.63 369.125 279.984C368.737 281.005 368.262 282.139 367.272 282.614C366.282 283.089 365.175 282.782 364.21 282.404C363.31 282.063 362.436 281.658 361.592 281.194C360.704 280.684 359.704 280.138 358.75 280.464C357.581 280.863 357.219 282.318 357.061 283.528C355.465 283.548 353.87 283.451 352.289 283.237C352.141 283.228 351.997 283.182 351.871 283.104C351.715 282.952 351.62 282.749 351.605 282.532C351.442 281.679 351.273 280.832 351.095 279.979C351.044 279.714 350.85 279.362 350.584 279.469C350.799 276.161 350.11 272.868 349.86 269.564C349.716 267.89 349.733 266.206 349.911 264.536C350.144 262.864 350.465 261.206 350.87 259.568C351.656 256.066 353.167 252.507 353.254 248.954C353.271 248.24 353.225 247.526 353.116 246.82C352.394 242.365 351.677 237.906 350.962 233.444C350.778 232.331 350.6 231.208 350.34 230.11C350.146 229.293 349.962 228.502 349.753 227.715C349.625 227.236 349.487 226.761 349.329 226.281C350.69 222.537 352.051 218.793 353.412 215.049C353.722 214.127 354.097 213.228 354.534 212.358C355.559 210.436 357.155 208.878 359.102 207.901C359.683 207.681 360.206 207.332 360.633 206.88C360.832 206.62 360.954 206.303 361.143 206.033C361.863 205.012 363.338 204.93 364.567 205.155C365.695 205.354 366.864 205.783 367.548 206.686C367.819 207.1 368.039 207.546 368.201 208.014C369.018 209.995 369.837 211.974 370.661 213.951C371.36 214.288 371.681 215.202 371.681 215.994C371.681 217.464 371.472 218.929 371.533 220.399C371.533 220.507 371.533 220.609 371.564 220.716C371.748 222.038 372.682 223.151 372.998 224.479C374.213 229.559 372.442 234.786 371.401 239.922C371.36 240.127 371.319 240.326 371.283 240.53C370.716 243.513 370.442 246.545 370.467 249.582C370.463 250.843 370.552 252.102 370.732 253.35C370.901 254.447 371.171 255.53 371.294 256.637C371.411 258.177 371.411 259.723 371.294 261.263C371.151 264.025 371.6 266.807 371.63 269.6Z" fill="#454B69"/>
<path d="M375.835 225.842C376.193 226.465 376.393 227.166 376.417 227.884C376.415 228.193 376.307 228.492 376.111 228.731C375.958 228.878 375.771 228.984 375.567 229.04C375.363 229.096 375.149 229.101 374.942 229.053C374.533 228.959 374.147 228.786 373.804 228.543C373.341 228.295 372.963 227.914 372.717 227.45C372.635 227.23 372.58 227 372.554 226.766L372.284 225.04C372.204 224.705 372.204 224.355 372.284 224.019C372.513 223.31 373.544 222.054 374.325 222.666C375.106 223.279 375.453 225.025 375.835 225.842Z" fill="#454B69"/>
<path d="M405.71 228.68C405.409 227.894 404.511 227.562 403.776 227.149C402.245 226.296 401.183 224.805 400.377 223.253C399.571 221.701 398.969 220.047 398.096 218.536C397.963 218.26 397.763 218.021 397.514 217.842C397.387 217.757 397.235 217.716 397.082 217.725C396.929 217.734 396.783 217.793 396.667 217.893C396.559 218.033 396.493 218.201 396.478 218.378C396.294 219.506 396.616 220.645 396.79 221.773C397.067 223.688 396.92 225.64 396.361 227.493C395.802 229.345 394.844 231.052 393.554 232.494C392.498 233.663 391.186 234.69 390.62 236.16C390.269 237.317 390.164 238.534 390.313 239.734L390.666 246.248C390.989 252.875 390.239 259.511 388.446 265.899C387.425 269.575 385.7 273.286 386.404 277.034C386.67 278.468 387.292 279.893 387.037 281.332C386.956 281.605 386.956 281.896 387.037 282.17C387.157 282.374 387.335 282.539 387.547 282.644L390.941 284.86L394.003 275.788C394.287 275.014 394.514 274.221 394.682 273.414C394.82 272.491 394.886 271.559 394.881 270.626C395.088 262.466 396.143 254.349 398.03 246.406C398.264 245.26 398.605 244.139 399.05 243.057C399.933 241.071 401.418 239.427 402.883 237.814C402.919 237.064 402.822 236.313 402.883 235.557C402.89 234.241 403.077 232.933 403.439 231.667C403.837 230.427 404.521 229.232 405.71 228.68Z" fill="#454B69"/>
<path d="M400.561 237.155C400.443 239.304 400.475 241.459 400.658 243.604L401.168 252.15C401.181 253.293 401.352 254.429 401.678 255.525C402.087 256.689 402.842 257.71 403.235 258.884C403.368 259.282 403.46 259.701 403.592 260.104C403.761 260.615 403.99 261.059 404.205 261.534C405.582 264.653 405.96 268.114 406.057 271.52C406.154 274.925 405.981 278.341 406.328 281.731C405.445 281.976 404.52 282.021 403.618 281.863C403.285 281.771 402.942 281.725 402.597 281.725C402.301 281.767 402.013 281.849 401.74 281.97C400.53 282.406 399.24 282.573 397.959 282.458C396.678 282.344 395.438 281.951 394.325 281.307C393.658 280.895 393.025 280.43 392.431 279.918C391.927 279.534 391.489 279.07 391.135 278.545C390.733 277.781 390.531 276.927 390.548 276.064C390.431 272.597 391.569 269.227 392.339 265.853C393.024 262.582 393.535 259.278 393.87 255.953C394.437 251.088 394.284 246.085 395.401 241.311C395.505 240.62 395.786 239.967 396.218 239.417C396.598 239.052 397.045 238.764 397.535 238.57C398.53 238.085 399.545 237.625 400.561 237.155Z" fill="#454B69"/>
<path opacity="0.1" d="M405.71 228.68C405.409 227.894 404.511 227.562 403.776 227.149C402.245 226.296 401.183 224.805 400.377 223.253C399.571 221.701 398.969 220.047 398.096 218.536C397.963 218.26 397.763 218.021 397.514 217.842C397.387 217.757 397.235 217.716 397.082 217.725C396.929 217.734 396.783 217.793 396.667 217.893C396.559 218.033 396.493 218.201 396.478 218.378C396.294 219.506 396.616 220.645 396.79 221.773C397.067 223.688 396.92 225.64 396.361 227.493C395.802 229.345 394.844 231.052 393.554 232.494C392.498 233.663 391.186 234.69 390.62 236.16C390.269 237.317 390.164 238.534 390.313 239.734L390.666 246.248C390.989 252.875 390.239 259.511 388.446 265.899C387.425 269.575 385.7 273.286 386.404 277.034C386.67 278.468 387.292 279.893 387.037 281.332C386.956 281.605 386.956 281.896 387.037 282.17C387.157 282.374 387.335 282.539 387.547 282.644L390.941 284.86L394.003 275.788C394.287 275.014 394.514 274.221 394.682 273.414C394.82 272.491 394.886 271.559 394.881 270.626C395.088 262.466 396.143 254.349 398.03 246.406C398.264 245.26 398.605 244.139 399.05 243.057C399.933 241.071 401.418 239.427 402.883 237.814C402.919 237.064 402.822 236.313 402.883 235.557C402.89 234.241 403.077 232.933 403.439 231.667C403.837 230.427 404.521 229.232 405.71 228.68Z" fill="black"/>
<path d="M401.928 282.313C401.818 282.697 401.585 283.034 401.265 283.272C400.923 283.466 400.367 283.303 400.336 282.91C399.765 282.833 399.316 283.507 398.764 283.553C398.213 283.599 397.703 283.043 397.162 283.165C396.815 283.257 396.488 283.625 396.172 283.461C396.039 283.395 395.958 283.252 395.82 283.201C395.6 283.129 395.391 283.334 395.167 283.385C394.692 283.492 394.345 282.91 394.33 282.425C394.314 281.94 394.457 281.404 394.233 280.985C394.205 280.914 394.153 280.856 394.085 280.822C393.932 280.75 393.763 280.893 393.661 281.031C393.284 281.542 393.176 282.251 392.794 282.782C392.411 283.313 391.497 283.563 391.15 283.012C391.014 282.723 390.989 282.394 391.079 282.088C391.309 280.781 391.819 279.377 392.993 278.764C394.013 278.254 395.238 278.448 396.361 278.683C397.922 279.023 399.482 279.375 401.04 279.739C401.454 279.836 402.444 279.887 402.623 280.367C402.801 280.847 402.092 281.904 401.928 282.313Z" fill="#A1616A"/>
<path d="M383.547 192.315C384.057 195.067 385.629 197.492 386.889 199.998C388.15 202.505 389.155 205.354 388.471 208.07C388.179 209.004 387.838 209.923 387.45 210.822C386.944 212.415 386.592 214.052 386.399 215.713C386.062 217.969 385.726 220.262 385.996 222.529C386.267 224.795 387.231 227.072 389.058 228.451L388.915 227.43C389.69 227.84 390.414 228.338 391.074 228.915C391.806 227.621 392.323 226.215 392.605 224.754L396.07 227.445C397.601 228.619 399.316 229.855 401.214 229.62L399.683 226.092C399.259 225.112 398.836 224.137 398.336 223.192C397.998 222.635 397.721 222.042 397.509 221.426C397.378 220.89 397.303 220.343 397.284 219.792C396.673 210.775 394.99 201.863 392.273 193.244C391.732 191.269 390.92 189.379 389.859 187.628C389.34 186.804 388.655 186.096 387.849 185.55C386.578 184.738 385.016 184.565 383.516 184.412C382.469 184.263 381.409 184.239 380.357 184.34C379.285 184.517 378.25 184.872 377.295 185.392C374.269 186.937 371.8 189.387 370.232 192.402C369.08 194.582 368.528 197.029 368.635 199.493C368.834 202.097 371.314 200.912 372.988 200.264C377.132 198.646 381.112 196.134 383.547 192.315Z" fill="#3F3D56"/>
<path opacity="0.1" d="M375.835 225.842C376.193 226.465 376.393 227.166 376.417 227.884C376.415 228.193 376.307 228.492 376.111 228.731C375.958 228.878 375.771 228.984 375.567 229.04C375.363 229.096 375.149 229.101 374.942 229.053C374.533 228.959 374.147 228.786 373.804 228.543C373.341 228.295 372.963 227.914 372.717 227.45C372.635 227.23 372.58 227 372.554 226.766L372.284 225.04C372.204 224.705 372.204 224.355 372.284 224.019C372.513 223.31 373.544 222.054 374.325 222.666C375.106 223.279 375.453 225.025 375.835 225.842Z" fill="black"/>
<path d="M379.025 207.988L377.111 222.329L385.522 221.819L388.257 207.988H379.025Z" fill="#454B69"/>
<path d="M383.164 212.895C383.516 212.895 383.802 212.609 383.802 212.256C383.802 211.904 383.516 211.618 383.164 211.618C382.811 211.618 382.526 211.904 382.526 212.256C382.526 212.609 382.811 212.895 383.164 212.895Z" fill="white"/>
<g opacity="0.1">
<path opacity="0.1" d="M388.691 206.344C388.777 206.094 388.854 205.834 388.92 205.589C389.599 202.868 388.594 200.019 387.333 197.512C386.073 195.005 384.521 192.585 383.996 189.828C381.561 193.647 377.591 196.159 373.442 197.772C371.768 198.421 369.283 199.6 369.084 197.001C369.035 196.422 369.035 195.84 369.084 195.261C368.69 196.61 368.535 198.018 368.625 199.421C368.824 202.025 371.304 200.841 372.978 200.192C377.132 198.584 381.097 196.072 383.531 192.253C384.041 195.005 385.613 197.43 386.874 199.912C387.894 201.933 388.737 204.149 388.691 206.344Z" fill="black"/>
<path opacity="0.1" d="M396.524 224.964C395.367 224.072 394.212 223.175 393.059 222.273C392.779 223.736 392.262 225.143 391.528 226.439C390.869 225.86 390.145 225.359 389.369 224.948L389.512 225.969C387.695 224.591 386.731 222.314 386.45 220.047C386.17 217.78 386.511 215.488 386.848 213.232C386.884 212.986 386.925 212.721 386.961 212.496C386.721 213.517 386.562 214.595 386.404 215.651C386.067 217.913 385.731 220.2 386.001 222.467C386.272 224.734 387.236 227.011 389.063 228.389L388.92 227.368C389.694 227.782 390.418 228.282 391.079 228.859C391.81 227.564 392.327 226.159 392.61 224.698C393.767 225.593 394.922 226.49 396.075 227.389C397.606 228.558 399.321 229.799 401.219 229.564L400.117 227.011C398.815 226.689 397.611 225.811 396.524 224.964Z" fill="black"/>
</g>
<path d="M374.412 215.621C375.206 214.561 376.17 213.64 377.264 212.895C377.433 212.77 377.642 212.712 377.851 212.731C378.015 212.767 378.152 212.89 378.321 212.92C378.514 212.934 378.706 212.888 378.872 212.787L381.23 211.654C381.574 211.457 381.961 211.345 382.357 211.327C382.557 211.326 382.75 211.398 382.901 211.528C383.052 211.659 383.151 211.839 383.179 212.037C383.179 212.476 382.745 212.772 382.357 212.992C381.187 213.658 380.08 214.431 379.051 215.299C378.54 215.754 377.958 216.504 378.356 217.086C378.524 217.254 378.729 217.381 378.953 217.456C379.178 217.531 379.418 217.553 379.653 217.52C380.508 217.561 381.365 217.496 382.204 217.326C382.878 217.158 383.511 216.856 384.19 216.698C384.813 216.574 385.447 216.51 386.083 216.509C386.454 216.452 386.834 216.534 387.149 216.739C387.43 216.979 387.405 217.556 387.042 217.627C387.553 218.306 387.103 219.307 386.435 219.818C385.766 220.328 384.904 220.537 384.205 220.971C385.021 220.68 385.986 220.4 386.711 220.879C386.82 220.943 386.902 221.045 386.94 221.165C386.986 221.405 386.731 221.589 386.506 221.676C383.159 223.238 379.193 222.697 375.687 223.856C374.203 224.349 372.835 225.139 371.666 226.179C372.212 225.668 368.849 222.095 369.14 221.073C369.375 220.236 371.064 219.169 371.692 218.521C372.631 217.605 373.537 216.639 374.412 215.621Z" fill="#A1616A"/>
<path opacity="0.1" d="M374.284 231.851C374.225 232.315 374.287 232.786 374.463 233.219C374.738 234.373 374.335 235.583 373.779 236.635C373.136 237.826 372.332 238.924 371.39 239.897C370.273 241.053 369.068 242.121 367.788 243.093C365.282 245.06 362.657 246.871 359.928 248.515C359.242 248.989 358.471 249.326 357.658 249.51C357.025 249.59 356.384 249.579 355.754 249.48C354.905 249.407 354.068 249.236 353.259 248.969C353.276 248.255 353.23 247.541 353.121 246.835C352.399 242.38 351.682 237.921 350.967 233.459C350.783 232.346 350.605 231.223 350.345 230.125C350.151 229.308 349.967 228.517 349.758 227.731C349.758 227.731 349.758 227.69 349.758 227.675C350.268 226.388 351.763 225.571 351.911 224.203C354.07 223.999 356.096 223.759 358.26 223.56C358.555 225.581 358.414 227.642 357.846 229.605C358.012 229.617 358.178 229.577 358.32 229.49C358.462 229.403 358.573 229.273 358.637 229.12C358.796 228.829 358.847 228.492 358.979 228.185C359.49 227.021 360.985 226.746 362.041 226.072C363.899 224.918 364.7 222.416 366.701 221.548C366.843 221.469 367.009 221.44 367.17 221.467C367.609 221.584 367.68 222.355 368.155 222.324C368.301 222.296 368.434 222.221 368.533 222.11C369.349 221.37 370.37 220.757 371.181 220.022C371.293 220.241 371.401 220.461 371.508 220.68C372.644 222.981 373.779 225.284 374.912 227.588C375.356 228.486 375.851 229.441 376.734 229.916C376.392 230.937 374.605 230.815 374.284 231.851Z" fill="black"/>
<path d="M351.294 223.126C351.151 224.499 349.646 225.316 349.14 226.603C348.936 227.288 348.852 228.002 348.89 228.716C348.839 230.758 348.38 232.709 348.125 234.705C347.87 236.701 347.819 238.789 348.553 240.668C348.992 241.781 349.697 242.792 349.998 243.951C350.202 244.727 350.217 245.564 350.579 246.279C351.37 247.81 353.386 248.209 355.116 248.397C355.746 248.497 356.387 248.507 357.02 248.428C357.834 248.243 358.607 247.905 359.296 247.433C362.022 245.787 364.645 243.976 367.15 242.011C369.482 240.188 371.743 238.166 373.141 235.552C373.697 234.501 374.1 233.291 373.83 232.137C373.649 231.705 373.588 231.232 373.651 230.769C373.973 229.747 375.754 229.855 376.142 228.839C375.259 228.369 374.764 227.414 374.325 226.516L370.594 218.944C369.778 219.685 368.757 220.297 367.946 221.038C367.844 221.148 367.71 221.223 367.563 221.252C367.109 221.283 367.017 220.512 366.578 220.394C366.419 220.369 366.256 220.396 366.114 220.471C364.108 221.344 363.307 223.846 361.449 224.999C360.367 225.673 358.898 225.949 358.387 227.113C358.255 227.414 358.204 227.756 358.045 228.047C357.986 228.206 357.877 228.341 357.734 228.433C357.592 228.525 357.424 228.569 357.254 228.558C357.824 226.596 357.965 224.534 357.668 222.513C355.484 222.687 353.458 222.927 351.294 223.126Z" fill="#454B69"/>
<path d="M401.75 281.97C401.888 281.919 402.025 281.863 402.163 281.822C402.414 281.597 402.592 281.301 402.673 280.974C402.755 280.646 402.738 280.302 402.622 279.984C402.444 279.505 401.454 279.474 401.04 279.357C399.482 278.982 397.922 278.632 396.361 278.305C395.238 278.065 394.008 277.856 392.993 278.381C392.615 278.581 392.304 279.244 392.048 279.581L392.441 279.918C392.865 280.27 393.299 280.618 393.748 280.939C393.787 280.89 393.84 280.854 393.9 280.835C393.96 280.816 394.024 280.815 394.085 280.832C394.153 280.866 394.205 280.924 394.233 280.995C394.286 281.096 394.322 281.205 394.34 281.317C395.453 281.96 396.692 282.352 397.972 282.465C399.253 282.578 400.542 282.409 401.75 281.97Z" fill="#454B69"/>
<path d="M580.752 188.006V231.626C580.752 232.923 578.323 233.98 575.317 233.98H460.218C457.212 233.98 454.778 232.923 454.778 231.626V188.006C454.778 186.704 457.212 185.382 460.218 185.382H575.322C578.328 185.382 580.752 186.704 580.752 188.006Z" fill="#3F3D56"/>
<path d="M570.02 200.974H510.067V203.092H570.02V200.974Z" fill="#5ECBCB"/>
<path opacity="0.5" d="M570.02 206.13H510.067V208.249H570.02V206.13Z" fill="#5ECBCB"/>
<path opacity="0.5" d="M570.02 211.292H510.067V213.41H570.02V211.292Z" fill="#5ECBCB"/>
<path opacity="0.5" d="M570.02 216.453H510.067V218.572H570.02V216.453Z" fill="#5ECBCB"/>
<path opacity="0.5" d="M479.733 196.317C476.676 196.315 473.699 197.3 471.245 199.124C468.792 200.949 466.991 203.516 466.112 206.445C465.232 209.375 465.32 212.509 466.363 215.385C467.406 218.26 469.347 220.722 471.899 222.406V219.996C471.902 219.208 472.193 218.448 472.716 217.858C473.239 217.269 473.96 216.891 474.742 216.795C475.222 217.689 475.935 218.436 476.806 218.957C477.677 219.478 478.673 219.753 479.687 219.753C480.702 219.753 481.697 219.478 482.568 218.957C483.439 218.436 484.152 217.689 484.632 216.795C485.415 216.891 486.136 217.269 486.66 217.858C487.184 218.447 487.476 219.207 487.48 219.996V222.467C490.05 220.796 492.012 218.338 493.072 215.461C494.132 212.583 494.235 209.44 493.364 206.499C492.493 203.559 490.695 200.979 488.238 199.144C485.782 197.309 482.799 196.318 479.733 196.317ZM485.984 213.676C485.937 213.768 485.873 213.851 485.796 213.921C485.673 214.003 485.53 214.051 485.382 214.059C485.287 214.064 485.192 214.064 485.096 214.059C484.713 215.361 483.873 216.481 482.731 217.214C481.589 217.947 480.221 218.243 478.878 218.048C477.535 217.853 476.307 217.18 475.42 216.153C474.533 215.126 474.046 213.813 474.048 212.456C474.046 211.481 474.299 210.524 474.783 209.678C474.762 209.666 474.741 209.652 474.722 209.637C474.012 209.05 474.211 207.519 474.905 207.028C475.269 206.823 475.664 206.679 476.074 206.6C477.308 206.241 478.363 205.434 479.034 204.338C479.049 204.624 479.039 204.911 479.003 205.196C479.115 205.073 479.251 204.973 479.402 204.904C479.553 204.834 479.717 204.795 479.883 204.789C480.05 204.784 480.216 204.811 480.371 204.87C480.527 204.93 480.669 205.019 480.789 205.134C480.937 205.344 481.109 205.535 481.3 205.706C481.494 205.815 481.71 205.876 481.932 205.885L483.346 206.069C483.827 206.028 484.307 206.16 484.701 206.441C485.094 206.721 485.375 207.132 485.495 207.6C485.914 208.562 486.226 209.567 486.423 210.597C486.624 211.645 486.47 212.73 485.984 213.681V213.676Z" fill="#5ECBCB"/>
<path d="M580.752 65.6399V109.265C580.752 110.562 578.323 111.619 575.317 111.619H460.218C457.212 111.619 454.778 110.562 454.778 109.265V65.6399C454.778 64.3431 457.212 63.0157 460.218 63.0157H575.322C578.328 63.0209 580.752 64.3431 580.752 65.6399Z" fill="#3F3D56"/>
<path d="M570.02 78.6077H510.067V80.7264H570.02V78.6077Z" fill="#5ECBCB"/>
<path opacity="0.5" d="M570.02 83.7692H510.067V85.8879H570.02V83.7692Z" fill="#5ECBCB"/>
<path opacity="0.5" d="M570.02 88.9308H510.067V91.0495H570.02V88.9308Z" fill="#5ECBCB"/>
<path opacity="0.5" d="M570.02 94.0872H510.067V96.2059H570.02V94.0872Z" fill="#5ECBCB"/>
<path opacity="0.5" d="M479.733 73.9567C476.676 73.9547 473.699 74.939 471.245 76.7634C468.792 78.5879 466.991 81.1554 466.112 84.0846C465.232 87.0139 465.32 90.1488 466.363 93.024C467.406 95.8992 469.347 98.3614 471.899 100.045V97.6354C471.901 96.8468 472.191 96.086 472.715 95.4964C473.238 94.9068 473.959 94.5291 474.742 94.4344C475.222 95.3284 475.935 96.0756 476.806 96.5965C477.677 97.1173 478.673 97.3924 479.687 97.3924C480.702 97.3924 481.697 97.1173 482.568 96.5965C483.439 96.0756 484.152 95.3284 484.632 94.4344C485.415 94.529 486.137 94.9065 486.661 95.496C487.186 96.0855 487.477 96.8463 487.48 97.6354V100.101C490.051 98.4313 492.014 95.9741 493.075 93.0965C494.137 90.2188 494.239 87.075 493.368 84.1342C492.497 81.1935 490.698 78.6134 488.241 76.7792C485.783 74.945 482.799 73.9549 479.733 73.9567ZM485.984 91.315C485.939 91.4089 485.875 91.4924 485.796 91.56C485.674 91.6448 485.53 91.6927 485.382 91.6979C485.287 91.703 485.192 91.703 485.096 91.6979C484.713 92.9997 483.874 94.1198 482.732 94.8526C481.59 95.5854 480.223 95.8819 478.88 95.6878C477.538 95.4936 476.31 94.8217 475.422 93.7954C474.535 92.769 474.047 91.457 474.048 90.0999C474.045 89.1257 474.299 88.1679 474.783 87.3226L474.722 87.2817C474.012 86.6895 474.211 85.163 474.905 84.6729C475.268 84.4656 475.663 84.3207 476.074 84.244C477.308 83.8834 478.364 83.0751 479.034 81.9772C479.049 82.2652 479.039 82.5539 479.003 82.84C479.115 82.7174 479.251 82.6182 479.402 82.5484C479.553 82.4786 479.716 82.4394 479.882 82.4332C480.049 82.4271 480.214 82.454 480.37 82.5124C480.526 82.5709 480.668 82.6597 480.789 82.7737C480.936 82.9839 481.107 83.1759 481.3 83.3455C481.494 83.4532 481.71 83.516 481.932 83.5293L483.346 83.708C483.932 83.7241 484.497 83.9281 484.959 84.29C485.201 84.5678 485.384 84.8928 485.495 85.2447C485.913 86.2081 486.225 87.2149 486.423 88.2466C486.622 89.2898 486.467 90.3694 485.984 91.315Z" fill="#5ECBCB"/>
<path d="M523.595 126.568V170.193C523.595 171.49 521.161 172.542 518.155 172.542H403.036C400.035 172.542 397.601 171.49 397.601 170.193V126.568C397.601 125.266 400.035 123.943 403.036 123.943H518.14C521.146 123.943 523.595 125.266 523.595 126.568Z" fill="#3F3D56"/>
<path d="M512.838 139.535H452.885V141.654H512.838V139.535Z" fill="#5ECBCB"/>
<path opacity="0.5" d="M422.551 134.879C419.495 134.88 416.52 135.865 414.068 137.69C411.616 139.514 409.817 142.081 408.937 145.008C408.058 147.936 408.144 151.07 409.185 153.944C410.225 156.819 412.163 159.282 414.712 160.968V160.023C414.714 159.235 415.004 158.474 415.527 157.884C416.051 157.295 416.772 156.917 417.555 156.822C418.041 157.709 418.757 158.449 419.628 158.964C420.498 159.479 421.491 159.751 422.502 159.751C423.514 159.751 424.506 159.479 425.377 158.964C426.247 158.449 426.963 157.709 427.45 156.822C428.233 156.917 428.954 157.295 429.477 157.884C430.001 158.474 430.291 159.235 430.292 160.023V161.044C432.873 159.378 434.845 156.92 435.912 154.039C436.98 151.158 437.086 148.008 436.214 145.062C435.342 142.116 433.54 139.531 431.077 137.695C428.613 135.86 425.622 134.872 422.551 134.879ZM428.124 152.911C428.124 154.401 427.532 155.829 426.479 156.882C425.427 157.936 423.999 158.527 422.51 158.527C421.021 158.527 419.593 157.936 418.541 156.882C417.488 155.829 416.896 154.401 416.896 152.911C416.553 152.158 416.365 151.343 416.342 150.516C416.32 149.688 416.464 148.865 416.766 148.094C417.067 147.323 417.521 146.62 418.099 146.028C418.677 145.436 419.369 144.966 420.132 144.646C419.948 144.362 419.844 144.033 419.832 143.695C419.819 143.357 419.898 143.022 420.06 142.725C420.222 142.428 420.461 142.18 420.752 142.008C421.043 141.835 421.376 141.745 421.714 141.746H421.847C421.53 141.768 421.224 141.87 420.957 142.042C420.691 142.215 420.472 142.453 420.323 142.733C420.173 143.013 420.097 143.327 420.102 143.645C420.107 143.962 420.193 144.273 420.351 144.549H420.407C420.383 144.426 420.371 144.301 420.372 144.176C420.369 143.784 420.493 143.401 420.724 143.084C420.841 142.699 421.079 142.362 421.403 142.123C421.726 141.884 422.118 141.755 422.52 141.756H422.653C422.365 141.776 422.086 141.861 421.838 142.007C421.589 142.152 421.377 142.353 421.219 142.593C421.502 142.406 421.831 142.299 422.171 142.284C422.51 142.268 422.847 142.346 423.146 142.507C423.445 142.668 423.695 142.908 423.869 143.2C424.043 143.492 424.134 143.826 424.133 144.166C424.138 144.236 424.138 144.306 424.133 144.375C425 144.608 425.806 145.027 426.495 145.603C427.183 146.179 427.739 146.898 428.121 147.711C428.504 148.523 428.705 149.409 428.711 150.307C428.717 151.206 428.527 152.094 428.154 152.911H428.124Z" fill="#5ECBCB"/>
<path opacity="0.5" d="M512.838 144.697H452.885V146.816H512.838V144.697Z" fill="#5ECBCB"/>
<path opacity="0.5" d="M512.838 149.853H452.885V151.972H512.838V149.853Z" fill="#5ECBCB"/>
<path opacity="0.5" d="M512.838 155.015H452.885V157.134H512.838V155.015Z" fill="#5ECBCB"/>
</g>
<defs>
<clipPath id="clip0">
<rect width="593" height="366" fill="white"/>
</clipPath>
</defs>
</svg>
